<?xml version="1.0" encoding="utf-8"?>
<!-- Generator: Adobe Illustrator 23.0.6, SVG Export Plug-In . SVG Version: 6.00 Build 0)  -->
<svg version="1.1" id="Capa_1" xmlns="http://www.w3.org/2000/svg" xmlns:xlink="http://www.w3.org/1999/xlink" x="0px" y="0px"
	 viewBox="0 0 32 32" style="enable-background:new 0 0 32 32;" xml:space="preserve">
<style type="text/css">
	.st0{fill:#6CAF45;}
	.st1{fill:#FFFFFF;}
	.st2{fill:#6CAF45;stroke:#FFFFFF;stroke-width:0.6543;stroke-miterlimit:10;}
	.st3{fill:#6CAF45;stroke:#FFFFFF;stroke-width:0.8416;stroke-miterlimit:10;}
</style>
<g>
	<g>
		<path class="st0" d="M4.4,12.6c14.8-16.2,29.2-0.1,24.8,5.4C18.8,28.6,13.8,11.4,4.4,12.6z"/>
		<g>
			<path class="st1" d="M30,16.5c-0.5-0.8-0.9-1.6-1.6-2.3c-0.6-0.6-1.4-1.1-2.3-1.3c-0.9-0.3-1.8-0.4-2.7-0.6
				c-0.9-0.2-2-0.6-2.5-1.4c0.7,0.6,1.7,0.8,2.6,0.9c0.9,0.1,1.9,0.2,2.8,0.5c0.9,0.3,1.8,0.8,2.5,1.6C29.4,14.6,29.7,15.6,30,16.5z
				"/>
		</g>
		<circle class="st2" cx="25.4" cy="22.1" r="4.3"/>
		<circle class="st3" cx="7.5" cy="20.2" r="5.5"/>
	</g>
</g>
</svg>
